<?xml version="1.0" standalone="no"?>
<!DOCTYPE svg PUBLIC "-//W3C//DTD SVG 20010904//EN"
 "http://www.w3.org/TR/2001/REC-SVG-20010904/DTD/svg10.dtd">
<svg version="1.0" xmlns="http://www.w3.org/2000/svg"
 width="492.000000pt" height="492.000000pt" viewBox="0 0 492.000000 492.000000"
 preserveAspectRatio="xMidYMid meet">
<metadata>
Created by potrace 1.11, written by Peter Selinger 2001-2013
</metadata>
<g transform="translate(0.000000,492.000000) scale(0.100000,-0.100000)"
fill="#000000" stroke="none">
<path d="M0 2460 l0 -1200 240 0 240 0 0 120 0 120 -120 0 -120 0 0 960 0 960
120 0 120 0 0 120 0 120 -240 0 -240 0 0 -1200z"/>
<path d="M2580 3300 l0 -360 -120 0 -120 0 0 -360 0 -360 -120 0 -120 0 0
-360 0 -360 120 0 120 0 0 360 0 360 120 0 120 0 0 360 0 360 120 0 120 0 0
360 0 360 -120 0 -120 0 0 -360z"/>
<path d="M4440 3540 l0 -120 120 0 120 0 0 -960 0 -960 -120 0 -120 0 0 -120
0 -120 240 0 240 0 0 1200 0 1200 -240 0 -240 0 0 -120z"/>
<path d="M1140 3300 l0 -120 240 0 240 0 0 -720 0 -720 -330 0 -330 0 0 120 0
120 -120 0 -120 0 0 -120 0 -120 120 0 120 0 0 -120 0 -120 330 0 330 0 0 120
0 120 120 0 120 0 0 840 0 840 -360 0 -360 0 0 -120z"/>
<path d="M3060 2460 l0 -960 120 0 120 0 0 600 0 600 120 0 120 0 0 -240 0
-240 120 0 120 0 0 240 0 240 90 0 90 0 0 -600 0 -600 120 0 120 0 0 960 0
960 -120 0 -120 0 0 -120 0 -120 -90 0 -90 0 0 -120 0 -120 -120 0 -120 0 0
120 0 120 -120 0 -120 0 0 120 0 120 -120 0 -120 0 0 -960z"/>
</g>
</svg>
