<?xml version="1.0" standalone="no"?>
<!DOCTYPE svg PUBLIC "-//W3C//DTD SVG 20010904//EN"
 "http://www.w3.org/TR/2001/REC-SVG-20010904/DTD/svg10.dtd">
<svg version="1.0" xmlns="http://www.w3.org/2000/svg"
 width="102.000000pt" height="102.000000pt" viewBox="0 0 102.000000 102.000000"
 preserveAspectRatio="xMidYMid meet">
<metadata>
Created by potrace 1.11, written by Peter Selinger 2001-2013
</metadata>
<g transform="translate(0.000000,102.000000) scale(0.100000,-0.100000)"
fill="#000000" stroke="none">
<path d="M90 520 l0 -200 40 0 c33 0 40 3 40 20 0 13 -7 20 -20 20 -19 0 -20
7 -20 160 0 153 1 160 20 160 13 0 20 7 20 20 0 17 -7 20 -40 20 l-40 0 0
-200z"/>
<path d="M520 660 c0 -53 -2 -60 -20 -60 -18 0 -20 -7 -20 -60 0 -53 -2 -60
-20 -60 -18 0 -20 -7 -20 -60 0 -53 2 -60 20 -60 18 0 20 7 20 60 0 53 2 60
20 60 18 0 20 7 20 60 0 53 2 60 20 60 18 0 20 7 20 60 0 53 -2 60 -20 60 -18
0 -20 -7 -20 -60z"/>
<path d="M830 700 c0 -13 7 -20 20 -20 19 0 20 -7 20 -160 0 -153 -1 -160 -20
-160 -13 0 -20 -7 -20 -20 0 -17 7 -20 40 -20 l40 0 0 200 0 200 -40 0 c-33 0
-40 -3 -40 -20z"/>
<path d="M280 660 c0 -17 7 -20 40 -20 l40 0 0 -120 0 -120 -55 0 c-48 0 -55
2 -55 20 0 13 -7 20 -20 20 -13 0 -20 -7 -20 -20 0 -13 7 -20 20 -20 13 0 20
-7 20 -20 0 -18 7 -20 55 -20 48 0 55 2 55 20 0 13 7 20 20 20 19 0 20 7 20
140 l0 140 -60 0 c-53 0 -60 -2 -60 -20z"/>
<path d="M600 520 c0 -153 1 -160 20 -160 19 0 20 7 20 100 0 93 1 100 20 100
17 0 20 -7 20 -40 0 -33 3 -40 20 -40 17 0 20 7 20 40 0 29 4 40 15 40 12 0
15 -18 15 -100 0 -93 1 -100 20 -100 19 0 20 7 20 160 0 153 -1 160 -20 160
-13 0 -20 -7 -20 -20 0 -11 -7 -20 -15 -20 -8 0 -15 -9 -15 -20 0 -13 -7 -20
-20 -20 -13 0 -20 7 -20 20 0 13 -7 20 -20 20 -13 0 -20 7 -20 20 0 13 -7 20
-20 20 -19 0 -20 -7 -20 -160z"/>
</g>
</svg>
